<svg width="25" height="25" viewBox="0 0 25 25" fill="none" xmlns="http://www.w3.org/2000/svg">
<g clip-path="url(#clip0_1_99)">
<path d="M10.7206 17.2015C7.36503 17.4087 2.65045 17.1638 0.244141 16.1199V20.3084C0.244141 20.5924 0.401115 20.8558 0.655174 20.9828C2.12917 21.7202 6.58569 22.3538 11.2867 21.9674C10.5844 20.4331 10.4223 18.7497 10.7206 17.2015Z" fill="#202225"/>
<path d="M16.5222 11.074V9.44556C12.9785 10.9844 3.77483 10.9772 0.244141 9.44556V14.3713C0.983619 15.1893 5.84316 16.0692 11.1936 15.6462C12.1345 13.4149 14.0968 11.6817 16.5222 11.074Z" fill="#202225"/>
<path d="M16.5222 7.69681V2.97192C12.9993 4.502 3.80172 4.51134 0.244141 2.97192V7.69681C1.95427 9.57802 14.9446 9.44794 16.5222 7.69681Z" fill="#202225"/>
<path d="M16.0767 1.07139C13.2952 -0.348248 3.47901 -0.366177 0.686847 1.07196C0.505458 1.16542 0.505458 1.42654 0.686656 1.52038C3.48683 2.96844 13.3099 2.928 16.0767 1.52<svg width="20" height="20" viewBox="0 0 24 24" fill="none" xmlns="http://www.w3.org/2000/svg">
<path d="M11.83 9L15 12.16V12C15 11.2044 14.6839 10.4413 14.1213 9.87868C13.5587 9.31607 12.7956 9 12 9H11.83ZM7.53 9.8L9.08 11.35C9.03 11.56 9 11.77 9 12C9 12.7956 9.31607 13.5587 9.87868 14.1213C10.4413 14.6839 11.2044 15 12 15C12.22 15 12.44 14.97 12.65 14.92L14.2 16.47C13.53 16.8 12.79 17 12 17C10.6739 17 9.40215 16.4732 8.46447 15.5355C7.52678 14.5979 7 13.3261 7 12C7 11.21 7.2 10.47 7.53 9.8ZM2 4.27L4.28 6.55L4.73 7C3.08 8.3 1.78 10 1 12C2.73 16.39 7 19.5 12 19.5C13.55 19.5 15.03 19.2 16.38 18.66L16.81 19.08L19.73 22L21 20.73L3.27 3M12 7C13.3261 7 14.5979 7.52678 15.5355 8.46447C16.4732 9.40215 17 10.6739 17 12C17 12.64 16.87 13.26 16.64 13.82L19.57 16.75C21.07 15.5 22.27 13.86 23 12C21.27 7.61 17 4.5 12 4.5C10.6 4.5 9.26 4.75 8 5.2L10.17 7.35C10.74 7.13 11.35 7 12 7Z" fill="currentColor"/>
</svg>
